<?xml version="1.0" encoding="UTF-8" standalone="no"?>
<!--
  - Copyright (c) 2023 SPARQL Anything Contributors @ http://github.com/sparql-anything
  -
  - Licensed under the Apache License, Version 2.0 (the "License");
  - you may not use this file except in compliance with the License.
  - You may obtain a copy of the License at
  -
  -      http://www.apache.org/licenses/LICENSE-2.0
  -
  - Unless required by applicable law or agreed to in writing, software
  - distributed under the License is distributed on an "AS IS" BASIS,
  - WITHOUT WARRANTIES OR CONDITIONS OF ANY KIND, either express or implied.
  - See the License for the specific language governing permissions and
  - limitations under the License.
  -->

<svg
   xmlns:dc="http://purl.org/dc/elements/1.1/"
   xmlns:cc="http://creativecommons.org/ns#"
   xmlns:rdf="http://www.w3.org/1999/02/22-rdf-syntax-ns#"
   xmlns:svg="http://www.w3.org/2000/svg"
   xmlns="http://www.w3.org/2000/svg"
   xmlns:sodipodi="http://sodipodi.sourceforge.net/DTD/sodipodi-0.dtd"
   xmlns:inkscape="http://www.inkscape.org/namespaces/inkscape"
   version="1.1"
   id="Livello_1"
   x="0px"
   y="0px"
   width="532"
   height="494"
   viewBox="0 0 531.99997 493.99999"
   enable-background="new 0 0 595.28 841.89"
   xml:space="preserve"
   sodipodi:docname="logo.svg"
   inkscape:version="1.0.1 (c497b03c, 2020-09-10)"><metadata
   id="metadata59"><rdf:RDF><cc:Work
       rdf:about=""><dc:format>image/svg+xml</dc:format><dc:type
         rdf:resource="http://purl.org/dc/dcmitype/StillImage" /><dc:title></dc:title></cc:Work></rdf:RDF></metadata><sodipodi:namedview
   pagecolor="#ffffff"
   bordercolor="#666666"
   borderopacity="1"
   objecttolerance="10"
   gridtolerance="10"
   guidetolerance="10"
   inkscape:pageopacity="0"
   inkscape:pageshadow="2"
   inkscape:window-width="1440"
   inkscape:window-height="847"
   id="namedview57"
   showgrid="false"
   inkscape:zoom="0.79226501"
   inkscape:cx="344.34156"
   inkscape:cy="99.083008"
   inkscape:window-x="0"
   inkscape:window-y="25"
   inkscape:window-maximized="1"
   inkscape:current-layer="Livello_1" />




<defs
   id="defs12">
<style
   type="text/css"
   id="style10">
	/* vietnamese */
	@font-face {
	  font-family: 'Darker Grotesque';
	  font-style: normal;
	  font-weight: 900;
	  font-display: swap;
	  src: url(https://fonts.gstatic.com/s/darkergrotesque/v2/U9MA6cuh-mLQlC4BKCtayOfARkSVozLzMWcrTckUoXzH6A.woff2) format('woff2');
	  unicode-range: U+0102-0103, U+0110-0111, U+0128-0129, U+0168-0169, U+01A0-01A1, U+01AF-01B0, U+1EA0-1EF9, U+20AB;
	}
	/* latin-ext */
	@font-face {
	  font-family: 'Darker Grotesque';
	  font-style: normal;
	  font-weight: 900;
	  font-display: swap;
	  src: url(https://fonts.gstatic.com/s/darkergrotesque/v2/U9MA6cuh-mLQlC4BKCtayOfARkSVozLzMWYrTckUoXzH6A.woff2) format('woff2');
	  unicode-range: U+0100-024F, U+0259, U+1E00-1EFF, U+2020, U+20A0-20AB, U+20AD-20CF, U+2113, U+2C60-2C7F, U+A720-A7FF;
	}
	/* latin */
	@font-face {
	  font-family: 'Darker Grotesque';
	  font-style: normal;
	  font-weight: 900;
	  font-display: swap;
	  src: url(https://fonts.gstatic.com/s/darkergrotesque/v2/U9MA6cuh-mLQlC4BKCtayOfARkSVozLzMWgrTckUoXw.woff2) format('woff2');
	  unicode-range: U+0000-00FF, U+0131, U+0152-0153, U+02BB-02BC, U+02C6, U+02DA, U+02DC, U+2000-206F, U+2074, U+20AC, U+2122, U+2191, U+2193, U+2212, U+2215, U+FEFF, U+FFFD;
	}


</style>


</defs>

<g
   id="g48"
   transform="translate(-26.506282,-167.87312)">
	<circle
   fill="#274597"
   cx="296.64801"
   cy="371.28799"
   r="198.797"
   id="circle14" />
	<g
   id="g24">
		<g
   id="g20">
			<path
   fill="#ffffff"
   d="m 178.683,412.042 c 0.347,0.52 0.649,0.937 0.915,1.375 12.015,19.777 24.009,39.566 36.072,59.314 0.951,1.558 0.808,2.264 -0.795,3.154 -3.192,1.771 -6.295,3.714 -9.355,5.709 -1.275,0.831 -1.906,0.879 -2.793,-0.581 -12.067,-19.849 -24.2,-39.658 -36.34,-59.464 -0.618,-1.009 -0.951,-1.681 0.384,-2.454 3.538,-2.046 6.993,-4.237 10.489,-6.358 0.43,-0.261 0.908,-0.446 1.423,-0.695 z"
   id="path16" />
			<path
   fill="#ffffff"
   d="m 329.634,458.344 c -4.93,-8.715 -9.871,-17.424 -14.81,-26.134 -0.496,-0.874 -1.228,-1.575 0.04,-2.595 8.427,-6.778 10.826,-19.456 3.783,-30.374 -8.018,-12.428 -15.512,-25.193 -23.227,-37.816 -5.956,-9.744 -13.842,-13.344 -25.14,-11.363 -1.032,0.181 -1.524,0.051 -2.074,-0.872 -3.185,-5.344 -6.581,-10.517 -9.873,-15.795 -1.858,1.585 -3.517,3.048 -5.392,4.609 2.562,4.505 5.152,8.995 7.674,13.522 0.416,0.748 1.679,1.627 0.838,2.425 -0.985,0.935 -2.143,2.073 -3.892,1.551 -1.663,-0.497 -3.373,-0.834 -5.063,-1.241 -5.927,-2.78 -11.028,-0.739 -15.787,2.828 -1.602,1.201 -2.41,0.89 -3.345,-0.771 -1.259,-2.238 -2.728,-4.365 -4.206,-6.47 -2.348,0.767 -4.717,1.482 -6.789,2.787 0.152,0.152 0.321,0.547 0.478,0.803 1.503,2.447 3.058,4.87 4.739,7.197 0.921,1.275 0.588,1.822 -0.639,2.549 -4.718,2.797 -9.357,5.727 -14.062,8.548 -2.928,1.756 -4.733,4.242 -5.507,7.566 -1.323,5.682 -3.15,11.285 -3.973,17.034 -0.867,6.06 -3.548,10.188 -9.209,12.56 -2.223,0.932 -4.473,3.699 -6.235,3.334 -1.998,-0.414 -2.75,-3.866 -4.152,-5.928 -0.098,-0.144 -0.183,-0.296 -0.277,-0.443 -1.86,-2.928 -3.535,-3.352 -6.49,-1.558 -5.731,3.479 -11.446,6.985 -17.163,10.487 -3.556,2.178 -3.915,3.647 -1.748,7.193 9.445,15.453 18.896,30.904 28.346,46.355 4.18,6.834 8.347,13.675 12.551,20.494 1.535,2.49 3.357,3.114 5.659,1.74 6.355,-3.793 12.666,-7.661 18.943,-11.581 2.109,-1.317 2.502,-3.224 1.296,-5.387 -0.932,-1.671 -1.963,-3.288 -2.983,-4.909 -0.509,-0.809 -0.803,-1.305 0.401,-1.944 2.918,-1.551 5.738,-3.292 8.541,-5.047 1.115,-0.698 2.151,-0.816 3.438,-0.578 7.958,1.468 15.891,1.253 23.816,-0.41 9.116,-1.913 17.147,-6.194 24.788,-11.281 1.863,-1.24 2.581,-0.86 3.703,0.897 5.336,8.361 10.829,16.622 16.274,24.913 2.052,3.124 3.498,3.465 6.702,1.519 6.028,-3.662 12.039,-7.351 18.054,-11.035 3.824,-2.342 4.148,-3.533 1.972,-7.379 z m -55.669,-11.945 c -12.748,7.791 -26.385,10.414 -41.024,6.854 -1.509,-0.367 -2.658,-0.023 -3.899,0.771 -3.371,2.155 -6.838,4.162 -10.191,6.343 -1.038,0.675 -1.376,0.41 -1.947,-0.518 -8.076,-13.121 -16.178,-26.226 -24.324,-39.304 -0.761,-1.222 -0.734,-1.806 0.591,-2.574 4.141,-2.402 8.174,-4.989 12.289,-7.436 1.601,-0.952 2.51,-2.211 2.937,-4.055 1.908,-8.226 3.982,-16.415 5.868,-24.646 0.469,-2.044 1.491,-3.357 3.259,-4.412 8.223,-4.906 16.454,-9.805 24.548,-14.919 2.635,-1.665 5.093,-2.434 8.057,-1.275 0.964,0.377 2.023,0.51 3.039,0.755 4.933,2.546 9.148,1.01 13.257,-2.093 8.236,-6.218 18.306,-2.783 22.875,5.369 5.272,9.409 11.041,18.541 16.645,27.762 2.303,3.79 4.831,7.444 7.1,11.253 4.904,8.228 2.535,16.727 -5.673,21.66 -11.193,6.727 -22.265,13.655 -33.407,20.465 z m 47.019,14.885 c -3.976,2.327 -7.911,4.73 -11.792,7.212 -1.181,0.755 -1.698,0.541 -2.415,-0.575 -4.695,-7.311 -9.433,-14.594 -14.224,-21.842 -0.833,-1.26 -0.944,-1.912 0.553,-2.776 4.367,-2.517 8.626,-5.224 12.933,-7.846 0.509,-0.31 1.056,-0.56 1.919,-1.013 0.219,0.56 0.353,1.079 0.608,1.53 4.322,7.644 8.633,15.294 13.02,22.9 0.674,1.168 0.593,1.711 -0.602,2.41 z"
   id="path18" />
		</g>
		<path
   fill="none"
   stroke="#ffffff"
   stroke-width="8"
   stroke-miterlimit="10"
   d="m 276.216,272.708 c -3.631,-7.272 -9.918,-9.908 -16.126,-6.823 -4.932,2.45 -9.786,5.065 -14.788,7.364 -3.405,1.565 -4.966,4.121 -4.591,8.494 0.312,3.628 -0.836,6.408 -4.097,7.566 -1.409,0.5 -2.715,1.284 -4.024,2.018 -0.628,0.352 -1.021,0.312 -1.634,-0.348 -4.621,-4.977 -8.982,-5.995 -14.214,-3.371 -11.522,5.781 -22.915,11.838 -34.602,17.268 -7.501,3.485 -12.8,9.221 -16.837,16.71 -7.338,13.613 -12.127,28.676 -16.494,43.271 -0.485,1.96 -0.827,3.284 -1.141,4.62 -0.609,2.6 0.028,4.505 1.941,5.873 1.725,1.233 3.537,1 5.146,-0.702 11.084,-11.725 24.379,-19.825 39.006,-25.682 4.169,-1.669 8.537,-2.823 13.252,-2.649 3.337,0.123 8.045,0.116 10.711,3.082 0.767,0.853 2.556,3.415 3.125,4.051 l 35.913,-19.645 c -1.445,-2.067 -2.929,-4.238 -4.608,-6.236 -0.907,-1.08 -1.615,-1.11 -0.575,-1.561 1.663,-0.722 2.296,-1.15 3.907,-1.986 1.292,-0.67 2.634,-0.633 4.097,-0.069 1.483,0.572 2.749,1.527 3.996,2.611 2.525,2.195 5.088,2.79 7.799,1.386 5.168,-2.677 10.409,-5.209 15.592,-7.857 6.174,-3.154 7.829,-9.784 4.237,-17.103 -4.961,-10.111 -9.96,-20.205 -14.991,-30.282 z"
   id="path22" />
	</g>
	<g
   id="g46">
		<path
   fill="#ffffff"
   d="m 381.097,405.349 c -24.225,-65.413 -8.574,-49.759 -73.984,-73.987 65.41,-24.227 49.759,-8.574 73.984,-73.984 24.23,65.411 8.576,49.757 73.987,73.984 -65.411,24.227 -49.757,8.574 -73.987,73.987 z"
   id="path26" />
		<g
   id="g44">
			<path
   fill="#ffffff"
   d="m 332.699,285.143 -3.77,0.074 3.565,-1.108 c 2.405,-0.749 3.631,-3.366 2.703,-5.771 l -1.375,-3.561 2.289,3.083 c 1.546,2.084 4.465,2.536 6.435,0.999 l 2.921,-2.276 -2.149,3.015 c -1.45,2.036 -0.871,4.932 1.276,6.387 l 3.179,2.155 -3.618,-1.221 c -2.443,-0.824 -5.003,0.513 -5.648,2.949 l -0.955,3.609 -0.087,-3.771 c -0.06,-2.543 -2.221,-4.613 -4.766,-4.563 z"
   id="path28" />
			<path
   fill="#ffffff"
   d="m 432.495,310.17 -3.77,0.074 3.565,-1.108 c 2.405,-0.749 3.631,-3.366 2.703,-5.771 l -1.375,-3.561 2.289,3.083 c 1.546,2.084 4.465,2.536 6.435,0.999 l 2.921,-2.276 -2.149,3.015 c -1.45,2.036 -0.871,4.932 1.276,6.387 l 3.179,2.155 -3.618,-1.221 c -2.443,-0.824 -5.003,0.513 -5.648,2.949 l -0.955,3.609 -0.087,-3.771 c -0.059,-2.543 -2.221,-4.613 -4.766,-4.563 z"
   id="path30" />
			<path
   fill="#ffffff"
   d="m 407.793,395.956 -8.949,0.176 8.462,-2.629 c 5.708,-1.777 8.62,-7.989 6.416,-13.699 l -3.265,-8.453 5.434,7.319 c 3.67,4.948 10.601,6.02 15.276,2.372 l 6.934,-5.403 -5.1,7.158 c -3.442,4.832 -2.068,11.709 3.029,15.162 l 7.546,5.116 -8.588,-2.899 c -5.798,-1.957 -11.877,1.219 -13.407,7.001 l -2.268,8.567 -0.206,-8.953 c -0.141,-6.04 -5.271,-10.954 -11.314,-10.835 z"
   id="path32" />
			<path
   fill="#ffffff"
   d="m 407.793,286.536 -8.949,0.176 8.462,-2.629 c 5.708,-1.777 8.62,-7.989 6.416,-13.699 l -3.265,-8.453 5.434,7.319 c 3.67,4.948 10.601,6.02 15.276,2.372 l 6.934,-5.403 -5.1,7.158 c -3.442,4.832 -2.068,11.709 3.029,15.163 l 7.546,5.116 -8.588,-2.899 c -5.798,-1.957 -11.877,1.219 -13.407,7.001 l -2.268,8.567 -0.206,-8.953 c -0.141,-6.04 -5.271,-10.954 -11.314,-10.836 z"
   id="path34" />
			<path
   fill="#ffffff"
   d="m 330.091,366.366 -5.661,0.111 5.353,-1.663 c 3.611,-1.124 5.453,-5.054 4.059,-8.665 l -2.065,-5.347 3.437,4.63 c 2.322,3.13 6.706,3.808 9.663,1.501 l 4.386,-3.418 -3.226,4.528 c -2.177,3.057 -1.308,7.407 1.916,9.591 l 4.773,3.236 -5.433,-1.834 c -3.668,-1.238 -7.513,0.771 -8.481,4.429 l -1.435,5.419 -0.13,-5.663 c -0.089,-3.821 -3.334,-6.93 -7.156,-6.855 z"
   id="path36" />
			<path
   fill="#ffffff"
   d="m 356.3,391.992 -1.5,1.556 1.016,-1.909 c 0.684,-1.287 0.163,-2.887 -1.147,-3.527 l -1.942,-0.946 2.129,0.376 c 1.435,0.253 2.797,-0.735 2.999,-2.181 l 0.3,-2.14 0.301,2.14 c 0.202,1.446 1.563,2.434 2.999,2.181 l 2.13,-0.376 -1.943,0.946 c -1.311,0.64 -1.831,2.239 -1.146,3.527 l 1.015,1.909 -1.502,-1.556 c -1.014,-1.05 -2.696,-1.05 -3.709,0 z"
   id="path38" />
			<path
   fill="#ffffff"
   d="m 436.292,359.572 -1.5,1.556 1.016,-1.909 c 0.684,-1.287 0.163,-2.887 -1.147,-3.527 l -1.942,-0.946 2.129,0.376 c 1.435,0.253 2.797,-0.735 2.999,-2.181 l 0.3,-2.14 0.3,2.14 c 0.202,1.446 1.563,2.434 2.999,2.181 l 2.13,-0.376 -1.943,0.946 c -1.311,0.64 -1.831,2.239 -1.146,3.527 l 1.015,1.909 -1.502,-1.556 c -1.013,-1.05 -2.695,-1.05 -3.708,0 z"
   id="path40" />
			<path
   fill="#ffffff"
   d="m 329.62,308.575 -1.5,1.556 1.016,-1.909 c 0.684,-1.287 0.163,-2.887 -1.147,-3.527 l -1.942,-0.946 2.129,0.376 c 1.435,0.253 2.797,-0.735 2.999,-2.181 l 0.3,-2.14 0.3,2.14 c 0.202,1.446 1.563,2.434 2.999,2.181 l 2.13,-0.376 -1.943,0.946 c -1.311,0.64 -1.831,2.239 -1.146,3.527 l 1.015,1.909 -1.502,-1.556 c -1.013,-1.05 -2.695,-1.05 -3.708,0 z"
   id="path42" />
		</g>
	</g>
</g>
<text
   transform="scale(0.88566358,1.1290969)"
   id="text54"
   x="0.90431345"
   y="426.70471"
   style="font-size:10.628px;stroke-width:0.885664"><tspan
     x="0.90431345"
     y="426.70471"
     fill="#0c9038"
     font-family="Darker Grotesque"
     font-size="81.8267"
     letter-spacing="1.12922"
     id="tspan50"
     style="font-style:normal;font-variant:normal;font-weight:800;font-stretch:normal;font-size:72.4709px;font-family:'Darker Grotesque';-inkscape-font-specification:'Darker Grotesque, Ultra-Bold';font-variant-ligatures:normal;font-variant-caps:normal;font-variant-numeric:normal;font-variant-east-asian:normal;stroke-width:0.7844">SPARQL.</tspan><tspan
     x="272.66486"
     y="426.70471"
     fill="#274597"
     font-family="'Darker Grotesque'"
     font-size="81.8267px"
     letter-spacing="1.12922"
     id="tspan52"
     style="font-style:normal;font-variant:normal;font-weight:800;font-stretch:normal;font-size:72.4709px;font-family:'Darker Grotesque';-inkscape-font-specification:'Darker Grotesque, Ultra-Bold';font-variant-ligatures:normal;font-variant-caps:normal;font-variant-numeric:normal;font-variant-east-asian:normal;stroke-width:0.7844">ANYTHING</tspan></text>
</svg>
